<svg xmlns="http://www.w3.org/2000/svg" viewBox="0 0 96 64">
  <defs>
    <linearGradient id="p" x1="0" y1="0" x2="0" y2="1">
      <stop offset="0" stop-color="#315d86"/>
      <stop offset="1" stop-color="#102f50"/>
    </linearGradient>
    <linearGradient id="b" x1="0" y1="0" x2="1" y2="1">
      <stop offset="0" stop-color="#f7fbff"/>
      <stop offset="0.55" stop-color="#a9bdca"/>
      <stop offset="1" stop-color="#5e7483"/>
    </linearGradient>
  </defs>
  <g stroke-linejoin="round">
    <path d="M3 21h31v22H3zM62 21h31v22H62z" fill="url(#p)" stroke="#8cc7ee" stroke-width="2"/>
    <path d="M8 21v22M15 21v22M22 21v22M29 21v22M67 21v22M74 21v22M81 21v22M88 21v22" fill="none" stroke="#5f9bc4" stroke-width="1" opacity=".72"/>
    <path d="M3 32h31M62 32h31" fill="none" stroke="#a9d7f3" stroke-width="1" opacity=".68"/>
    <path d="M38 17h20l7 15-7 15H38l-7-15z" fill="url(#b)" stroke="#eef8ff" stroke-width="2"/>
    <path d="M42 23h12v18H42z" fill="#435967" stroke="#d9e8f0" stroke-width="1.4"/>
    <path d="M48 9v8M48 47v8" fill="none" stroke="#d8e8f1" stroke-width="2.4" stroke-linecap="round"/>
    <circle cx="48" cy="32" r="4" fill="#d7ae52" stroke="#fff0b0" stroke-width="1.5"/>
  </g>
</svg>
